<svg version="1.1" id="Layer_1" xmlns="http://www.w3.org/2000/svg" xmlns:xlink="http://www.w3.org/1999/xlink" x="0px" y="0px"
	 width="100%" viewBox="0 0 1024 576" enable-background="new 0 0 1024 576" xml:space="preserve">
<path fill="#000000" opacity="1.000000" stroke="none" 
	d="
M302.297852,209.702301 
	C324.187988,231.876083 345.834656,253.793442 367.462463,275.729401 
	C372.068085,280.400665 372.031219,281.654266 367.371002,286.343506 
	C358.801453,294.966278 360.120148,292.770203 367.202606,300.302826 
	C372.245239,305.665924 372.329102,306.379242 367.098846,311.587494 
	C341.378052,337.200165 315.651184,362.806671 289.918304,388.407166 
	C288.975647,389.344910 287.866669,390.122955 286.973328,391.101532 
	C283.563538,394.836823 280.379730,394.065430 277.167267,390.810059 
	C272.254913,385.832031 267.280609,380.915253 262.341827,375.963257 
	C241.057251,354.621613 219.778625,333.274048 198.492004,311.934479 
	C192.336197,305.763336 192.340561,305.055206 198.571304,298.731659 
	C200.297180,296.980072 201.954636,295.161102 203.624847,293.392761 
	C202.028793,290.282318 199.523575,288.536804 197.500504,286.385590 
	C192.579376,281.152710 192.481812,279.868378 197.438873,274.851196 
	C213.239960,258.858368 229.094498,242.918350 244.921127,226.950745 
	C255.822815,215.951965 266.802521,205.028122 277.553528,193.883759 
	C280.849396,190.467285 283.356995,190.270599 286.627319,193.788971 
	C291.613464,199.153275 296.892792,204.245041 302.297852,209.702301 
M261.967957,341.532196 
	C268.936066,347.915802 274.729462,355.511993 281.949066,361.516052 
	C284.881256,360.204041 286.470032,357.988770 288.324707,356.136078 
	C311.898560,332.587372 335.350830,308.915955 359.067047,285.511902 
	C362.701141,281.925629 362.696777,279.997375 359.107208,276.430420 
	C335.117767,252.592010 311.361572,228.518936 287.501404,204.550125 
	C285.886719,202.928070 284.509460,200.960587 283.187378,201.201050 
	C256.201202,227.951889 229.215057,254.702744 201.963684,281.716492 
	C221.599106,301.290497 241.532883,321.161896 261.967957,341.532196 
z"/>
<path fill="#000000" opacity="1.000000" stroke="none" 
	d="
M579.790527,340.708618 
	C582.971558,336.201019 586.219971,336.107452 590.026611,339.428131 
	C592.277344,341.391479 594.799744,343.058899 597.282837,344.736786 
	C600.862366,347.155640 601.145508,349.765961 598.233154,352.975433 
	C590.137329,361.897095 580.162720,367.737518 568.502686,370.331177 
	C545.913086,375.355927 525.007812,372.072571 508.992126,354.165222 
	C496.273865,339.944824 491.910309,322.635284 494.579163,303.496277 
	C497.994354,279.005066 511.328186,262.568512 534.795105,255.763535 
	C559.366638,248.638229 586.395020,255.421158 598.676758,278.499176 
	C603.339111,287.259766 606.027466,296.651672 606.345642,306.657227 
	C606.408569,308.637390 606.804138,310.610565 607.098877,312.579102 
	C608.042053,318.879364 606.096375,321.276245 599.746643,321.285583 
	C574.918152,321.322113 550.089600,321.306091 525.261108,321.307800 
	C517.633484,321.308350 516.820801,322.424927 519.473389,329.742249 
	C524.363770,343.232635 534.449402,350.206451 548.309937,351.795441 
	C560.319397,353.172241 571.185608,350.501495 579.790527,340.708618 
M545.150818,272.397430 
	C543.857666,272.710571 542.550842,272.976105 541.273560,273.344330 
	C529.306030,276.794525 522.221252,285.064911 518.712769,296.638306 
	C517.939392,299.189270 516.909424,302.658997 521.748779,302.665527 
	C540.901489,302.691406 560.054199,302.676483 579.206909,302.690491 
	C581.775879,302.692383 583.013062,301.356659 582.592590,298.927307 
	C580.834839,288.771942 577.665649,279.623199 567.111877,274.952545 
	C560.247864,271.914825 553.194458,272.098663 545.150818,272.397430 
z"/>
<path fill="#000000" opacity="1.000000" stroke="none" 
	d="
M820.195679,343.054016 
	C807.337097,364.793182 783.083374,376.183167 758.894531,372.089325 
	C734.010742,367.877869 714.794678,348.847107 709.340942,324.602295 
	C702.447266,293.955872 721.903137,263.922180 750.025391,255.863266 
	C793.888977,243.293442 828.153687,275.314911 828.030640,314.094025 
	C827.998596,324.190063 825.424744,333.852051 820.195679,343.054016 
M788.491455,346.057281 
	C792.982727,343.252075 796.290649,339.409180 798.747742,334.729218 
	C803.927368,324.863678 804.542664,314.479584 802.814941,303.685181 
	C800.924011,291.871429 795.308044,282.951385 784.181030,277.799957 
	C777.394348,274.657959 770.271973,274.739960 763.123352,275.228180 
	C753.652527,275.874969 745.773743,279.927704 740.192078,287.641632 
	C731.555786,299.576965 730.254883,313.116241 734.418152,326.670441 
	C741.230286,348.848694 766.263184,357.758026 788.491455,346.057281 
z"/>
<path fill="#000000" opacity="1.000000" stroke="none" 
	d="
M471.303925,348.594513 
	C475.152588,347.822815 475.730042,350.401123 475.899872,352.693085 
	C476.182098,356.502136 476.063263,360.348328 475.968842,364.175293 
	C475.904724,366.774933 474.457092,368.670258 472.041016,369.448120 
	C459.414612,373.513367 446.786407,374.226898 434.722595,367.813812 
	C424.629272,362.448212 422.123932,352.492462 421.864777,342.289734 
	C421.357178,322.302795 421.665802,302.295227 421.626831,282.296204 
	C421.613342,275.384155 421.599487,275.330505 414.675140,275.414612 
	C410.680908,275.463135 406.690247,275.808319 402.696045,275.854797 
	C398.901001,275.898926 397.014374,274.090363 396.812073,270.074615 
	C396.057587,255.099655 395.978851,255.128662 410.930023,254.971085 
	C423.172333,254.842087 421.480927,256.462036 421.610107,244.383331 
	C421.665344,239.217346 421.734131,234.047791 421.602539,228.884811 
	C421.512390,225.347916 422.874390,223.571060 426.538788,223.649094 
	C430.703583,223.737778 434.872284,223.740662 439.037598,223.674072 
	C442.883942,223.612579 444.376831,225.485764 444.315491,229.228333 
	C444.200836,236.226135 444.379272,243.228928 444.251068,250.226257 
	C444.188049,253.665710 445.640442,255.045898 449.011414,254.989471 
	C455.509613,254.880707 462.011139,254.981201 468.510040,254.898285 
	C473.020538,254.840744 475.441803,256.741119 475.237274,261.463043 
	C475.165222,263.126709 475.218231,264.795776 475.214813,266.462402 
	C475.196930,275.193054 474.382355,275.986725 465.402649,275.963898 
	C460.069611,275.950348 454.733795,276.015961 449.404602,275.861664 
	C445.931152,275.761108 444.217316,276.854614 444.246429,280.690125 
	C444.376892,297.855164 444.043396,315.027222 444.396393,332.186066 
	C444.727356,348.273163 451.018768,352.644287 468.007660,349.436798 
	C468.987793,349.251801 469.943787,348.938995 471.303925,348.594513 
z"/>
<path fill="#000000" opacity="1.000000" stroke="none" 
	d="
M630.688721,271.007019 
	C630.678101,267.345093 630.764954,264.177704 630.635193,261.019226 
	C630.465820,256.894867 632.072021,254.744064 636.452026,254.934219 
	C639.941650,255.085709 643.444580,255.010376 646.939575,254.938385 
	C651.293945,254.848694 653.457825,256.807770 653.283630,261.263184 
	C653.187622,263.717072 653.266357,266.177765 653.266357,269.187103 
	C656.129639,268.276703 657.216614,266.312653 658.609131,264.859406 
	C667.930664,255.131561 679.708740,252.842239 692.471008,253.598969 
	C695.113159,253.755630 696.753967,255.272369 696.669617,258.173981 
	C696.519775,263.330658 696.380249,268.487640 696.254333,273.644958 
	C696.159790,277.514679 694.489197,278.923981 690.485962,278.105591 
	C669.315430,273.777832 653.789856,286.069366 653.394531,307.770477 
	C653.064026,325.912964 653.293274,344.065521 653.257507,362.213593 
	C653.244080,369.050354 652.272400,370.091400 645.514038,370.069427 
	C629.315674,370.016693 630.367798,370.981140 630.528748,355.419434 
	C630.817993,327.450562 630.660706,299.477112 630.688721,271.007019 
z"/>
<path fill="#000000" opacity="1.000000" stroke="none" 
	d="
M288.966644,222.996475 
	C306.642822,240.701736 324.082306,258.138641 341.482971,275.614197 
	C346.169556,280.320984 346.188873,281.564362 341.516510,286.252014 
	C323.286011,304.542145 304.950745,322.728363 286.797333,341.094513 
	C283.383636,344.548187 280.852112,344.272003 277.623627,341.003082 
	C259.477020,322.629211 241.197281,304.386841 223.038742,286.024689 
	C218.556625,281.492340 218.662750,279.859436 223.274704,275.211273 
	C240.643906,257.705688 258.047760,240.234528 275.450531,222.762283 
	C282.081696,216.104645 282.096283,216.119186 288.966644,222.996475 
M263.185669,270.684906 
	C261.314728,272.574066 259.580750,274.628723 257.542633,276.315918 
	C253.930725,279.306030 253.873978,282.014374 257.251129,285.318054 
	C264.732422,292.636597 272.095215,300.080292 279.355774,307.618011 
	C281.666718,310.017212 283.301575,309.815521 285.491913,307.537354 
	C293.092133,299.632324 300.754913,291.784485 308.535797,284.057831 
	C310.895630,281.714417 310.599884,280.008423 308.429016,277.835297 
	C300.796265,270.194641 293.203186,262.512085 285.721069,254.724380 
	C283.125427,252.022751 281.223572,252.323120 278.760986,254.948090 
	C273.874420,260.156860 268.721527,265.115753 263.185669,270.684906 
z"/>
<path fill="#000000" opacity="1.000000" stroke="none" 
	d="
M292.355103,283.065369 
	C291.015533,284.582153 290.004852,285.940613 288.727325,286.966827 
	C286.419617,288.820587 284.819458,293.126190 281.282501,291.452240 
	C277.140381,289.491943 274.104431,285.692810 271.683838,281.691589 
	C271.030853,280.612274 271.911652,279.530792 272.613068,278.550659 
	C279.743164,268.587128 284.481903,268.511047 291.777863,278.246643 
	C292.829956,279.650543 293.636505,281.019714 292.355103,283.065369 
z"/>
</svg>